<?xml version="1.0" encoding="utf-8"?>
<!-- Generator: Adobe Illustrator 19.0.0, SVG Export Plug-In . SVG Version: 6.00 Build 0)  -->
<svg version="1.1" id="Layer_1" xmlns="http://www.w3.org/2000/svg" xmlns:xlink="http://www.w3.org/1999/xlink" x="0px" y="0px"
	 viewBox="-223 25 512 512" style="enable-background:new -223 25 512 512;" xml:space="preserve">
<style type="text/css">
	.st0{fill:#FFFFFF;}
</style>
<g id="icomoon-ignore">
</g>
<path class="st0" d="M56.5,104.5c0,0-100.5,0-134,0c-60.1,0-116.6,45.5-116.6,98.2c0,53.9,40.9,97.3,102,97.3
	c4.2,0,8.4-0.1,12.4-0.4c-4,7.6-6.8,16.1-6.8,25c0,15,8.1,27.1,18.2,37c-7.7,0-15.1,0.2-23.2,0.2c-74.4,0-131.6,47.4-131.6,96.5
	c0,48.4,62.8,78.7,137.2,78.7c84.8,0,131.7-48.1,131.7-96.5c0-38.8-11.4-62-46.8-87.1c-12.1-8.6-35.3-29.4-35.3-41.7
	c0-14.4,4.1-21.4,25.7-38.3c22.2-17.3,37.8-41.7,37.8-70c0-33.7-15-66.5-43.2-77.4h42.5L56.5,104.5L56.5,104.5z M9.7,432.2
	c1.1,4.5,1.6,9.1,1.6,13.8c0,39.1-25.2,69.7-97.5,69.7c-51.4,0-88.6-32.6-88.6-71.6c0-38.3,46.1-70.2,97.5-69.7
	c12,0.1,23.2,2.1,33.3,5.3C-15.9,399.1,4.1,410.1,9.7,432.2L9.7,432.2z M-72.6,286.4c-34.5-1-67.3-38.6-73.3-83.9s17.2-80,51.7-79
	s67.3,37.4,73.3,82.7S-38.1,287.4-72.6,286.4z M193,200.5v-96h-32v96H65v32h96v96h32v-96h96v-32H193z"/>
</svg>
