<?xml version="1.0" encoding="utf-8"?>
<!-- Generator: Adobe Illustrator 19.0.0, SVG Export Plug-In . SVG Version: 6.00 Build 0)  -->
<svg version="1.1" id="Layer_1" xmlns="http://www.w3.org/2000/svg" xmlns:xlink="http://www.w3.org/1999/xlink" x="0px" y="0px"
	 viewBox="-223 25 512 512" style="enable-background:new -223 25 512 512;" xml:space="preserve">
<style type="text/css">
	.st0{fill:#FFFFFF;}
</style>
<g id="icomoon-ignore">
</g>
<path class="st0" d="M204,25h-342c-46.8,0-85,38.3-85,85v342c0,46.8,38.3,85,85,85h342c46.8,0,85-38.3,85-85V110
	C289,63.3,250.8,25,204,25z M-59.1,249h184.2c3.5,10,5.4,20.8,5.4,32c0,53.8-43.7,97.5-97.5,97.5s-97.5-43.7-97.5-97.5
	C-64.5,269.8-62.6,259-59.1,249L-59.1,249z M225,249v192c0,17.6-14.4,32-32,32h-320c-17.6,0-32-14.4-32-32V249h50.1
	c-2.3,10.3-3.6,21-3.6,32c0,80.2,65.3,145.5,145.5,145.5S178.5,361.2,178.5,281c0-11-1.2-21.7-3.6-32H225z M225,137
	c0,8.8-7.2,16-16,16h-32c-8.8,0-16-7.2-16-16v-32c0-8.8,7.2-16,16-16h32c8.8,0,16,7.2,16,16V137z"/>
</svg>
