<?xml version="1.0" encoding="utf-8"?>
<!-- Generator: Adobe Illustrator 19.0.0, SVG Export Plug-In . SVG Version: 6.00 Build 0)  -->
<svg version="1.1" id="Layer_1" xmlns="http://www.w3.org/2000/svg" xmlns:xlink="http://www.w3.org/1999/xlink" x="0px" y="0px"
	 viewBox="-223 25 512 512" style="enable-background:new -223 25 512 512;" xml:space="preserve">
<style type="text/css">
	.st0{fill:#FFFFFF;}
</style>
<g id="icomoon-ignore">
</g>
<path class="st0" d="M-75.5,25l-34.6,68.6L-144.7,25h-44.1l62.4,108.7l0.4-0.2V217h32v-83.6l0.4,0.2L-31.4,25H-75.5z"/>
<path class="st0" d="M17.9,89c8.7,0,16,7.3,16,16v64c0,8.7-7.3,16-16,16s-16-7.3-16-16v-64C1.9,96.3,9.2,89,17.9,89z M17.9,57
	c-26.4,0-48,21.6-48,48v64c0,26.4,21.6,48,48,48s48-21.6,48-48v-64C65.9,78.6,44.3,57,17.9,57L17.9,57z"/>
<path class="st0" d="M161.9,57v126c-14,11.6-32,18.7-32-22.8V57h-32v109.7l0,0c0.5,26.5,6.1,74.1,64,35.4v15h32V57H161.9L161.9,57z"
	/>
<path class="st0" d="M209.9,377c-8.8,0-16,7.2-16,16v16h32v-16C225.9,384.2,218.8,377,209.9,377z"/>
<path class="st0" d="M65.9,393v84c10.8,10.8,32,12,32-4s0-59,0-75S81.9,377,65.9,393z"/>
<path class="st0" d="M287.3,315.8c-1.4-18.4-8-33.5-19.9-45.1c-11.9-11.6-27-18-45.5-19c-34.9-1.7-114.7-2.6-184.9-2.6
	s-155.6,0.9-190.5,2.6c-18.5,1-33.7,7.4-45.5,19c-11.9,11.7-18.5,26.7-19.9,45.1c-2.1,37.6-3.1,51.2-3.1,70s1,46.9,3.1,84.5
	c1.4,18.4,8,33.5,19.9,45.1c11.9,11.6,27,18,45.5,19c34.9,1.7,120.4,2.6,190.5,2.6s150-0.9,184.9-2.6c18.5-1,33.7-7.4,45.5-19
	c11.9-11.6,18.5-26.7,19.9-45.1c1.7-31.3,2.6-59.5,2.6-84.5C290,360.7,289,347.1,287.3,315.8L287.3,315.8z M-126.1,505h-32V345h-32
	v-32h96v32h-32V505z M1.9,505h-32v-15c-60.8,34.1-63.5,1.1-64-25.4l0,0V377h32v88.2c0,19.3,18,17.5,32,5.8v-94h32V505z M129.9,472.5
	c0,33.4-34.3,43.2-64,17.2V505h-32V313h32v52c32-32,64-20,64,12S129.9,437.6,129.9,472.5z M258,409v16h-64v32c0,8.8,7.2,16,16,16
	s16-7.2,16-16v-16h32v16c0,26.5-21.5,48-48,48s-48-21.5-48-48v-64c0-26.5,21.5-48,48-48s48,21.5,48,48V409z"/>
</svg>
